<svg width="358" height="111" viewBox="0 0 358 111" fill="none" xmlns="http://www.w3.org/2000/svg">
<g clip-path="url(#clip0_192_270)">
<g filter="url(#filter0_d_192_270)">
<rect width="358" height="111" rx="8" fill="#F0DEBF" fill-opacity="0.6" shape-rendering="crispEdges"/>
<rect x="0.25" y="0.25" width="357.5" height="110.5" rx="7.75" stroke="#D3A75C" stroke-width="0.5" shape-rendering="crispEdges"/>
</g>
<path d="M475 -16.5C475 -10.2622 471.754 -4.0855 465.447 1.67746C459.14 7.44043 449.896 12.6768 438.242 17.0876C426.588 21.4984 412.753 24.9972 397.527 27.3843C382.3 29.7714 365.981 31 349.5 31C333.019 31 316.7 29.7714 301.473 27.3843C286.247 24.9972 272.412 21.4984 260.758 17.0876C249.104 12.6768 239.86 7.44043 233.553 1.67746C227.246 -4.08551 224 -10.2622 224 -16.5L349.5 -16.5H475Z" fill="#164C53" fill-opacity="0.8"/>
<path d="M-7 19.1167C-7 18.6553 -6.1165 16.4336 -4.30365 14.2303C-2.41583 11.9358 0.930123 9.96737 4.29877 8.26173C6.85594 6.96697 8.8392 6.7364 11.8855 6.12647C15.0369 5.4955 22.3519 5.61317 29.1337 5.39796C31.6188 5.3191 33.7811 5.09613 37.4528 4.47312C39.4721 4.13048 41.0199 3.59131 43.3999 2.74875C46.3113 1.71811 47.2508 0.704295 48.1521 -0.281549C49.3095 -1.54761 49.9848 -3.70976 50.8379 -5.01905C51.5955 -6.18176 52.6732 -7.10483 53.7708 -7.97857C55.0437 -8.99198 57.6975 -10.6086 60.1471 -12.1006C62.898 -13.7763 66.5722 -14.8863 69.657 -15.6432C72.8885 -16.4361 77.2727 -17.3965 79.1044 -17.8382C81.0081 -18.3528 82.739 -19.033 84.3598 -19.9016C84.8221 -20.1954 85.3878 -20.5917 85.9707 -21" stroke="#92430C" stroke-width="4" stroke-linecap="round"/>
<path d="M0.193359 26.223C0.618578 25.7043 1.96137 24.2549 3.26687 23.0466C5.44549 21.0302 8.86201 19.9222 11.5251 18.8617C13.3563 18.1324 15.3073 17.7204 17.2254 17.4466C18.162 17.3129 19.2022 17.3182 23.8511 17.3053C27.9441 17.294 35.5572 17.2666 39.6917 17.2267C45.1533 17.1739 47.1544 16.5428 49.2689 15.9388C51.1568 15.3996 53.0034 14.6423 54.4991 13.9754C55.9358 13.3347 57.7081 12.0161 58.9986 10.8969C60.026 10.0059 60.8329 8.95702 61.9833 7.70582C63.1362 6.45177 64.3753 4.89161 65.5594 3.74968C66.7517 2.59972 67.7992 1.43998 68.8152 0.484543C69.943 -0.576051 71.658 -1.50068 72.8955 -2.24076C74.1728 -3.00458 75.6125 -3.6214 76.9504 -4.31989C77.6784 -4.58308 78.4007 -4.84782 79.0818 -5.18084C79.4271 -5.36529 79.7718 -5.58115 80.4509 -6.03677" stroke="#92430C" stroke-width="4" stroke-linecap="round"/>
<path d="M-0.300781 42.4323C0.0686107 41.9827 2.10886 40.229 4.23558 38.8722C7.25312 36.9469 10.4188 36.1714 13.0369 35.5271C15.4146 34.9418 18.4015 34.7451 21.1877 34.4094C23.9847 34.0724 27.3192 33.9545 29.5968 33.7759C31.8795 33.5969 34.0748 33.3905 49.0238 33.2732C53.9599 33.2345 56.845 32.2759 59.4631 31.4676C61.6817 30.7827 63.7008 29.6441 66.2828 28.4924C69.8021 26.9225 72.9739 24.5041 74.4411 23.2034C75.9575 21.8591 77.3866 20.0955 78.6564 18.5941C79.8984 17.1256 81.3716 15.587 82.745 13.9886C84.0615 12.4565 85.3204 11.0816 86.5556 9.54354C88.2743 7.40352 90.1571 6.09462 92.3429 4.44016C94.0235 3.1681 95.6898 1.55451 97.4419 0.319031C99.0309 -0.801502 101.058 -1.76795 102.898 -2.80872C104.584 -3.72055 105.723 -4.45189 106.467 -5.01272C106.856 -5.31328 107.266 -5.64626 108 -6.30228" stroke="#92430C" stroke-width="4" stroke-linecap="round"/>
</g>
<path d="M41.248 58L37.6113 48.1357H38.9033L41.8018 56.4072H41.9111L44.8096 48.1357H46.1016L42.4648 58H41.248ZM50.0254 58.1299C47.9268 58.1299 46.6279 56.6807 46.6279 54.3223V54.3086C46.6279 51.9434 47.9268 50.501 50.0254 50.501C52.124 50.501 53.4229 51.9434 53.4229 54.3086V54.3223C53.4229 56.6807 52.124 58.1299 50.0254 58.1299ZM50.0254 57.0771C51.4199 57.0771 52.2061 56.0586 52.2061 54.3223V54.3086C52.2061 52.5654 51.4199 51.5537 50.0254 51.5537C48.6309 51.5537 47.8447 52.5654 47.8447 54.3086V54.3223C47.8447 56.0586 48.6309 57.0771 50.0254 57.0771ZM58.2832 58.1299C56.2188 58.1299 54.8994 56.6328 54.8994 54.2949V54.2812C54.8994 51.9912 56.2119 50.501 58.2764 50.501C60.0674 50.501 61.1406 51.5332 61.3594 52.8457L61.3662 52.8867H60.1836L60.1768 52.8662C59.9922 52.1416 59.3359 51.5537 58.2764 51.5537C56.9502 51.5537 56.1162 52.6201 56.1162 54.2812V54.2949C56.1162 55.9902 56.9639 57.0771 58.2764 57.0771C59.2676 57.0771 59.8965 56.6396 60.1699 55.8193L60.1836 55.7783L61.3594 55.7715L61.3457 55.8467C61.0449 57.1797 60.0537 58.1299 58.2832 58.1299ZM63.6836 49.6055L65.3379 47.2812H66.7734L68.4277 49.6055H67.1699L66.1104 48.0537H66.001L64.9414 49.6055H63.6836ZM66.1104 58.1299C64.0049 58.1299 62.7334 56.6533 62.7334 54.3428V54.3359C62.7334 52.0596 64.0322 50.501 66.0352 50.501C68.0381 50.501 69.2549 51.9912 69.2549 54.1924V54.6572H63.9502C63.9844 56.1816 64.8252 57.0703 66.1377 57.0703C67.1357 57.0703 67.751 56.5986 67.9492 56.1543L67.9766 56.0928H69.166L69.1523 56.1475C68.8994 57.1455 67.8467 58.1299 66.1104 58.1299ZM66.0283 51.5605C64.9346 51.5605 64.1006 52.3057 63.9707 53.707H68.0449C67.9219 52.251 67.1152 51.5605 66.0283 51.5605ZM75.0381 58V50.6309H76.2275V51.7383H76.3369C76.7061 50.959 77.3965 50.501 78.4834 50.501C80.1377 50.501 81.0605 51.4785 81.0605 53.2285V58H79.8711V53.5156C79.8711 52.1895 79.3242 51.5537 78.1484 51.5537C76.9727 51.5537 76.2275 52.3467 76.2275 53.6387V58H75.0381ZM86.9736 49.5576C86.4473 49.5576 86.0918 49.2979 85.7158 48.9219L85.6406 48.8467C85.3877 48.5938 85.2441 48.5186 85.0596 48.5186C84.7314 48.5186 84.54 48.8604 84.54 49.5576V49.585H83.583V49.5098C83.583 48.334 84.0752 47.6162 84.9502 47.6162C85.4766 47.6162 85.832 47.876 86.208 48.252L86.2832 48.3271C86.5361 48.5801 86.6797 48.6553 86.8643 48.6553C87.1924 48.6553 87.3838 48.3135 87.3838 47.6162V47.5889H88.3408V47.6641C88.3408 48.8398 87.8486 49.5576 86.9736 49.5576ZM85.2373 58.1299C83.8359 58.1299 82.7764 57.2822 82.7764 55.9424V55.9287C82.7764 54.6162 83.7471 53.8574 85.4629 53.7549L87.5752 53.625V52.9551C87.5752 52.0459 87.0215 51.5537 85.9209 51.5537C85.0391 51.5537 84.458 51.8818 84.2666 52.4561L84.2598 52.4766H83.0703L83.0771 52.4355C83.2686 51.2803 84.3896 50.501 85.9619 50.501C87.7598 50.501 88.7646 51.4238 88.7646 52.9551V58H87.5752V56.9131H87.4658C87.001 57.6992 86.2285 58.1299 85.2373 58.1299ZM83.9932 55.915C83.9932 56.6602 84.6289 57.0977 85.4834 57.0977C86.6934 57.0977 87.5752 56.3047 87.5752 55.252V54.582L85.6064 54.7051C84.4854 54.7734 83.9932 55.1699 83.9932 55.9014V55.915ZM93.9668 58.1299C91.8682 58.1299 90.5693 56.6807 90.5693 54.3223V54.3086C90.5693 51.9434 91.8682 50.501 93.9668 50.501C96.0654 50.501 97.3643 51.9434 97.3643 54.3086V54.3223C97.3643 56.6807 96.0654 58.1299 93.9668 58.1299ZM93.9668 57.0771C95.3613 57.0771 96.1475 56.0586 96.1475 54.3223V54.3086C96.1475 52.5654 95.3613 51.5537 93.9668 51.5537C92.5723 51.5537 91.7861 52.5654 91.7861 54.3086V54.3223C91.7861 56.0586 92.5723 57.0771 93.9668 57.0771ZM103.147 60.4609V50.6309H104.337V51.8066H104.446C104.897 50.9863 105.718 50.501 106.743 50.501C108.609 50.501 109.833 52.0117 109.833 54.3086V54.3223C109.833 56.6328 108.616 58.1299 106.743 58.1299C105.731 58.1299 104.85 57.624 104.446 56.8379H104.337V60.4609H103.147ZM106.47 57.0771C107.816 57.0771 108.616 56.0381 108.616 54.3223V54.3086C108.616 52.5928 107.816 51.5537 106.47 51.5537C105.13 51.5537 104.31 52.6064 104.31 54.3086V54.3223C104.31 56.0244 105.13 57.0771 106.47 57.0771ZM111.692 58V50.6309H112.882V51.7246H112.991C113.271 50.9521 113.962 50.501 114.96 50.501C115.186 50.501 115.438 50.5283 115.555 50.5488V51.7041C115.309 51.6631 115.083 51.6357 114.823 51.6357C113.688 51.6357 112.882 52.3535 112.882 53.4336V58H111.692ZM119.827 58.1299C117.722 58.1299 116.45 56.6533 116.45 54.3428V54.3359C116.45 52.0596 117.749 50.501 119.752 50.501C121.755 50.501 122.972 51.9912 122.972 54.1924V54.6572H117.667C117.701 56.1816 118.542 57.0703 119.854 57.0703C120.853 57.0703 121.468 56.5986 121.666 56.1543L121.693 56.0928H122.883L122.869 56.1475C122.616 57.1455 121.563 58.1299 119.827 58.1299ZM119.745 51.5605C118.651 51.5605 117.817 52.3057 117.688 53.707H121.762C121.639 52.251 120.832 51.5605 119.745 51.5605ZM127.832 58.1299C125.768 58.1299 124.448 56.6328 124.448 54.2949V54.2812C124.448 51.9912 125.761 50.501 127.825 50.501C129.616 50.501 130.689 51.5332 130.908 52.8457L130.915 52.8867H129.732L129.726 52.8662C129.541 52.1416 128.885 51.5537 127.825 51.5537C126.499 51.5537 125.665 52.6201 125.665 54.2812V54.2949C125.665 55.9902 126.513 57.0771 127.825 57.0771C128.816 57.0771 129.445 56.6396 129.719 55.8193L129.732 55.7783L130.908 55.7715L130.895 55.8467C130.594 57.1797 129.603 58.1299 127.832 58.1299ZM133.28 49.209C132.829 49.209 132.46 48.8398 132.46 48.3887C132.46 47.9375 132.829 47.5684 133.28 47.5684C133.731 47.5684 134.101 47.9375 134.101 48.3887C134.101 48.8398 133.731 49.209 133.28 49.209ZM132.679 58V50.6309H133.868V58H132.679ZM138.64 58.1299C136.999 58.1299 135.871 57.3369 135.734 56.1201H136.951C137.149 56.7354 137.737 57.1387 138.681 57.1387C139.672 57.1387 140.376 56.667 140.376 55.9971V55.9834C140.376 55.4844 140 55.1357 139.091 54.917L137.949 54.6436C136.568 54.3154 135.946 53.7139 135.946 52.6543V52.6475C135.946 51.4238 137.122 50.501 138.688 50.501C140.232 50.501 141.306 51.2734 141.47 52.4766H140.301C140.144 51.8955 139.569 51.4922 138.681 51.4922C137.806 51.4922 137.163 51.9434 137.163 52.5928V52.6064C137.163 53.1055 137.532 53.4199 138.4 53.6318L139.535 53.9053C140.923 54.2402 141.593 54.8418 141.593 55.8945V55.9082C141.593 57.2207 140.314 58.1299 138.64 58.1299ZM145.462 58.1299C144.061 58.1299 143.001 57.2822 143.001 55.9424V55.9287C143.001 54.6162 143.972 53.8574 145.688 53.7549L147.8 53.625V52.9551C147.8 52.0459 147.246 51.5537 146.146 51.5537C145.264 51.5537 144.683 51.8818 144.491 52.4561L144.484 52.4766H143.295L143.302 52.4355C143.493 51.2803 144.614 50.501 146.187 50.501C147.984 50.501 148.989 51.4238 148.989 52.9551V58H147.8V56.9131H147.69C147.226 57.6992 146.453 58.1299 145.462 58.1299ZM144.218 55.915C144.218 56.6602 144.854 57.0977 145.708 57.0977C146.918 57.0977 147.8 56.3047 147.8 55.252V54.582L145.831 54.7051C144.71 54.7734 144.218 55.1699 144.218 55.9014V55.915ZM157.124 58.1299C155.723 58.1299 154.663 57.2822 154.663 55.9424V55.9287C154.663 54.6162 155.634 53.8574 157.35 53.7549L159.462 53.625V52.9551C159.462 52.0459 158.908 51.5537 157.808 51.5537C156.926 51.5537 156.345 51.8818 156.153 52.4561L156.146 52.4766H154.957L154.964 52.4355C155.155 51.2803 156.276 50.501 157.849 50.501C159.646 50.501 160.651 51.4238 160.651 52.9551V58H159.462V56.9131H159.353C158.888 57.6992 158.115 58.1299 157.124 58.1299ZM155.88 55.915C155.88 56.6602 156.516 57.0977 157.37 57.0977C158.58 57.0977 159.462 56.3047 159.462 55.252V54.582L157.493 54.7051C156.372 54.7734 155.88 55.1699 155.88 55.9014V55.915ZM165.443 58.0547C163.926 58.0547 163.29 57.4941 163.29 56.0859V51.6152H162.128V50.6309H163.29V48.7236H164.521V50.6309H166.134V51.6152H164.521V55.7852C164.521 56.6533 164.821 57.002 165.587 57.002C165.799 57.002 165.915 56.9951 166.134 56.9746V57.9863C165.901 58.0273 165.676 58.0547 165.443 58.0547ZM170.81 58.1299C168.704 58.1299 167.433 56.6533 167.433 54.3428V54.3359C167.433 52.0596 168.731 50.501 170.734 50.501C172.737 50.501 173.954 51.9912 173.954 54.1924V54.6572H168.649C168.684 56.1816 169.524 57.0703 170.837 57.0703C171.835 57.0703 172.45 56.5986 172.648 56.1543L172.676 56.0928H173.865L173.852 56.1475C173.599 57.1455 172.546 58.1299 170.81 58.1299ZM170.728 51.5605C169.634 51.5605 168.8 52.3057 168.67 53.707H172.744C172.621 52.251 171.814 51.5605 170.728 51.5605ZM175.8 58V50.6309H176.989V51.7383H177.099C177.468 50.959 178.158 50.501 179.245 50.501C180.899 50.501 181.822 51.4785 181.822 53.2285V58H180.633V53.5156C180.633 52.1895 180.086 51.5537 178.91 51.5537C177.734 51.5537 176.989 52.3467 176.989 53.6387V58H175.8ZM186.696 58.1299C184.83 58.1299 183.606 56.6191 183.606 54.3223V54.3086C183.606 51.998 184.823 50.501 186.696 50.501C187.708 50.501 188.59 51.0068 188.993 51.793H189.103V47.7051H190.292V58H189.103V56.8242H188.993C188.542 57.6445 187.722 58.1299 186.696 58.1299ZM186.97 57.0771C188.31 57.0771 189.13 56.0244 189.13 54.3223V54.3086C189.13 52.6064 188.31 51.5537 186.97 51.5537C185.623 51.5537 184.823 52.5928 184.823 54.3086V54.3223C184.823 56.0381 185.623 57.0771 186.97 57.0771ZM195.583 58.1299C193.478 58.1299 192.206 56.6533 192.206 54.3428V54.3359C192.206 52.0596 193.505 50.501 195.508 50.501C197.511 50.501 198.728 51.9912 198.728 54.1924V54.6572H193.423C193.457 56.1816 194.298 57.0703 195.61 57.0703C196.608 57.0703 197.224 56.5986 197.422 56.1543L197.449 56.0928H198.639L198.625 56.1475C198.372 57.1455 197.319 58.1299 195.583 58.1299ZM195.501 51.5605C194.407 51.5605 193.573 52.3057 193.443 53.707H197.518C197.395 52.251 196.588 51.5605 195.501 51.5605ZM200.573 58V50.6309H201.763V51.7246H201.872C202.152 50.9521 202.843 50.501 203.841 50.501C204.066 50.501 204.319 50.5283 204.436 50.5488V51.7041C204.189 51.6631 203.964 51.6357 203.704 51.6357C202.569 51.6357 201.763 52.3535 201.763 53.4336V58H200.573ZM211.866 58.1299C210.465 58.1299 209.405 57.2822 209.405 55.9424V55.9287C209.405 54.6162 210.376 53.8574 212.092 53.7549L214.204 53.625V52.9551C214.204 52.0459 213.65 51.5537 212.55 51.5537C211.668 51.5537 211.087 51.8818 210.896 52.4561L210.889 52.4766H209.699L209.706 52.4355C209.897 51.2803 211.019 50.501 212.591 50.501C214.389 50.501 215.394 51.4238 215.394 52.9551V58H214.204V56.9131H214.095C213.63 57.6992 212.857 58.1299 211.866 58.1299ZM210.622 55.915C210.622 56.6602 211.258 57.0977 212.112 57.0977C213.322 57.0977 214.204 56.3047 214.204 55.252V54.582L212.235 54.7051C211.114 54.7734 210.622 55.1699 210.622 55.9014V55.915ZM220.596 58.1299C218.497 58.1299 217.198 56.6807 217.198 54.3223V54.3086C217.198 51.9434 218.497 50.501 220.596 50.501C222.694 50.501 223.993 51.9434 223.993 54.3086V54.3223C223.993 56.6807 222.694 58.1299 220.596 58.1299ZM220.596 57.0771C221.99 57.0771 222.776 56.0586 222.776 54.3223V54.3086C222.776 52.5654 221.99 51.5537 220.596 51.5537C219.201 51.5537 218.415 52.5654 218.415 54.3086V54.3223C218.415 56.0586 219.201 57.0771 220.596 57.0771ZM232.784 58.1299C230.679 58.1299 229.407 56.6533 229.407 54.3428V54.3359C229.407 52.0596 230.706 50.501 232.709 50.501C234.712 50.501 235.929 51.9912 235.929 54.1924V54.6572H230.624C230.658 56.1816 231.499 57.0703 232.812 57.0703C233.81 57.0703 234.425 56.5986 234.623 56.1543L234.65 56.0928H235.84L235.826 56.1475C235.573 57.1455 234.521 58.1299 232.784 58.1299ZM232.702 51.5605C231.608 51.5605 230.774 52.3057 230.645 53.707H234.719C234.596 52.251 233.789 51.5605 232.702 51.5605ZM240.304 58.1299C238.663 58.1299 237.535 57.3369 237.398 56.1201H238.615C238.813 56.7354 239.401 57.1387 240.345 57.1387C241.336 57.1387 242.04 56.667 242.04 55.9971V55.9834C242.04 55.4844 241.664 55.1357 240.755 54.917L239.613 54.6436C238.232 54.3154 237.61 53.7139 237.61 52.6543V52.6475C237.61 51.4238 238.786 50.501 240.352 50.501C241.896 50.501 242.97 51.2734 243.134 52.4766H241.965C241.808 51.8955 241.233 51.4922 240.345 51.4922C239.47 51.4922 238.827 51.9434 238.827 52.5928V52.6064C238.827 53.1055 239.196 53.4199 240.064 53.6318L241.199 53.9053C242.587 54.2402 243.257 54.8418 243.257 55.8945V55.9082C243.257 57.2207 241.979 58.1299 240.304 58.1299ZM247.652 58.0547C246.135 58.0547 245.499 57.4941 245.499 56.0859V51.6152H244.337V50.6309H245.499V48.7236H246.729V50.6309H248.343V51.6152H246.729V55.7852C246.729 56.6533 247.03 57.002 247.796 57.002C248.008 57.002 248.124 56.9951 248.343 56.9746V57.9863C248.11 58.0273 247.885 58.0547 247.652 58.0547ZM253.019 58.1299C250.913 58.1299 249.642 56.6533 249.642 54.3428V54.3359C249.642 52.0596 250.94 50.501 252.943 50.501C254.946 50.501 256.163 51.9912 256.163 54.1924V54.6572H250.858C250.893 56.1816 251.733 57.0703 253.046 57.0703C254.044 57.0703 254.659 56.5986 254.857 56.1543L254.885 56.0928H256.074L256.061 56.1475C255.808 57.1455 254.755 58.1299 253.019 58.1299ZM252.937 51.5605C251.843 51.5605 251.009 52.3057 250.879 53.707H254.953C254.83 52.251 254.023 51.5605 252.937 51.5605ZM258.009 58V50.6309H259.198V51.7246H259.308C259.588 50.9521 260.278 50.501 261.276 50.501C261.502 50.501 261.755 50.5283 261.871 50.5488V51.7041C261.625 51.6631 261.399 51.6357 261.14 51.6357C260.005 51.6357 259.198 52.3535 259.198 53.4336V58H258.009ZM263.97 49.209C263.519 49.209 263.149 48.8398 263.149 48.3887C263.149 47.9375 263.519 47.5684 263.97 47.5684C264.421 47.5684 264.79 47.9375 264.79 48.3887C264.79 48.8398 264.421 49.209 263.97 49.209ZM263.368 58V50.6309H264.558V58H263.368ZM270.279 49.6055H269.24L270.45 47.2812H271.858L270.279 49.6055ZM269.828 58.1299C267.729 58.1299 266.431 56.6807 266.431 54.3223V54.3086C266.431 51.9434 267.729 50.501 269.828 50.501C271.927 50.501 273.226 51.9434 273.226 54.3086V54.3223C273.226 56.6807 271.927 58.1299 269.828 58.1299ZM269.828 57.0771C271.223 57.0771 272.009 56.0586 272.009 54.3223V54.3086C272.009 52.5654 271.223 51.5537 269.828 51.5537C268.434 51.5537 267.647 52.5654 267.647 54.3086V54.3223C267.647 56.0586 268.434 57.0771 269.828 57.0771ZM277.689 58.0547C276.172 58.0547 275.536 57.4941 275.536 56.0859V51.6152H274.374V50.6309H275.536V48.7236H276.767V50.6309H278.38V51.6152H276.767V55.7852C276.767 56.6533 277.067 57.002 277.833 57.002C278.045 57.002 278.161 56.9951 278.38 56.9746V57.9863C278.147 58.0273 277.922 58.0547 277.689 58.0547ZM280.786 49.209C280.335 49.209 279.966 48.8398 279.966 48.3887C279.966 47.9375 280.335 47.5684 280.786 47.5684C281.237 47.5684 281.606 47.9375 281.606 48.3887C281.606 48.8398 281.237 49.209 280.786 49.209ZM280.185 58V50.6309H281.374V58H280.185ZM283.616 60.4609V50.6309H284.806V51.8066H284.915C285.366 50.9863 286.187 50.501 287.212 50.501C289.078 50.501 290.302 52.0117 290.302 54.3086V54.3223C290.302 56.6328 289.085 58.1299 287.212 58.1299C286.2 58.1299 285.318 57.624 284.915 56.8379H284.806V60.4609H283.616ZM286.938 57.0771C288.285 57.0771 289.085 56.0381 289.085 54.3223V54.3086C289.085 52.5928 288.285 51.5537 286.938 51.5537C285.599 51.5537 284.778 52.6064 284.778 54.3086V54.3223C284.778 56.0244 285.599 57.0771 286.938 57.0771ZM295.189 58.1299C293.091 58.1299 291.792 56.6807 291.792 54.3223V54.3086C291.792 51.9434 293.091 50.501 295.189 50.501C297.288 50.501 298.587 51.9434 298.587 54.3086V54.3223C298.587 56.6807 297.288 58.1299 295.189 58.1299ZM295.189 57.0771C296.584 57.0771 297.37 56.0586 297.37 54.3223V54.3086C297.37 52.5654 296.584 51.5537 295.189 51.5537C293.795 51.5537 293.009 52.5654 293.009 54.3086V54.3223C293.009 56.0586 293.795 57.0771 295.189 57.0771ZM307.091 58.1299C305.225 58.1299 304.001 56.6191 304.001 54.3223V54.3086C304.001 51.998 305.218 50.501 307.091 50.501C308.103 50.501 308.984 51.0068 309.388 51.793H309.497V47.7051H310.687V58H309.497V56.8242H309.388C308.937 57.6445 308.116 58.1299 307.091 58.1299ZM307.364 57.0771C308.704 57.0771 309.524 56.0244 309.524 54.3223V54.3086C309.524 52.6064 308.704 51.5537 307.364 51.5537C306.018 51.5537 305.218 52.5928 305.218 54.3086V54.3223C305.218 56.0381 306.018 57.0771 307.364 57.0771ZM315.978 58.1299C313.872 58.1299 312.601 56.6533 312.601 54.3428V54.3359C312.601 52.0596 313.899 50.501 315.902 50.501C317.905 50.501 319.122 51.9912 319.122 54.1924V54.6572H313.817C313.852 56.1816 314.692 57.0703 316.005 57.0703C317.003 57.0703 317.618 56.5986 317.816 56.1543L317.844 56.0928H319.033L319.02 56.1475C318.767 57.1455 317.714 58.1299 315.978 58.1299ZM315.896 51.5605C314.802 51.5605 313.968 52.3057 313.838 53.707H317.912C317.789 52.251 316.982 51.5605 315.896 51.5605ZM26.9062 75.1299C25.2656 75.1299 24.1377 74.3369 24.001 73.1201H25.2178C25.416 73.7354 26.0039 74.1387 26.9473 74.1387C27.9385 74.1387 28.6426 73.667 28.6426 72.9971V72.9834C28.6426 72.4844 28.2666 72.1357 27.3574 71.917L26.2158 71.6436C24.835 71.3154 24.2129 70.7139 24.2129 69.6543V69.6475C24.2129 68.4238 25.3887 67.501 26.9541 67.501C28.499 67.501 29.5723 68.2734 29.7363 69.4766H28.5674C28.4102 68.8955 27.8359 68.4922 26.9473 68.4922C26.0723 68.4922 25.4297 68.9434 25.4297 69.5928V69.6064C25.4297 70.1055 25.7988 70.4199 26.667 70.6318L27.8018 70.9053C29.1895 71.2402 29.8594 71.8418 29.8594 72.8945V72.9082C29.8594 74.2207 28.5811 75.1299 26.9062 75.1299ZM34.7129 75.1299C32.6074 75.1299 31.3359 73.6533 31.3359 71.3428V71.3359C31.3359 69.0596 32.6348 67.501 34.6377 67.501C36.6406 67.501 37.8574 68.9912 37.8574 71.1924V71.6572H32.5527C32.5869 73.1816 33.4277 74.0703 34.7402 74.0703C35.7383 74.0703 36.3535 73.5986 36.5518 73.1543L36.5791 73.0928H37.7686L37.7549 73.1475C37.502 74.1455 36.4492 75.1299 34.7129 75.1299ZM34.6309 68.5605C33.5371 68.5605 32.7031 69.3057 32.5732 70.707H36.6475C36.5244 69.251 35.7178 68.5605 34.6309 68.5605ZM39.7031 75V67.6309H40.8926V68.7246H41.002C41.2822 67.9521 41.9727 67.501 42.9707 67.501C43.1963 67.501 43.4492 67.5283 43.5654 67.5488V68.7041C43.3193 68.6631 43.0938 68.6357 42.834 68.6357C41.6992 68.6357 40.8926 69.3535 40.8926 70.4336V75H39.7031ZM47.1885 75L44.4609 67.6309H45.7188L47.7354 73.7012H47.8447L49.8613 67.6309H51.1191L48.3916 75H47.1885ZM53.3203 66.209C52.8691 66.209 52.5 65.8398 52.5 65.3887C52.5 64.9375 52.8691 64.5684 53.3203 64.5684C53.7715 64.5684 54.1406 64.9375 54.1406 65.3887C54.1406 65.8398 53.7715 66.209 53.3203 66.209ZM52.7188 75V67.6309H53.9082V75H52.7188ZM58.8711 75.1299C57.0049 75.1299 55.7812 73.6191 55.7812 71.3223V71.3086C55.7812 68.998 56.998 67.501 58.8711 67.501C59.8828 67.501 60.7646 68.0068 61.168 68.793H61.2773V64.7051H62.4668V75H61.2773V73.8242H61.168C60.7168 74.6445 59.8965 75.1299 58.8711 75.1299ZM59.1445 74.0771C60.4844 74.0771 61.3047 73.0244 61.3047 71.3223V71.3086C61.3047 69.6064 60.4844 68.5537 59.1445 68.5537C57.7979 68.5537 56.998 69.5928 56.998 71.3086V71.3223C56.998 73.0381 57.7979 74.0771 59.1445 74.0771ZM68.5098 66.5576C67.9834 66.5576 67.6279 66.2979 67.252 65.9219L67.1768 65.8467C66.9238 65.5938 66.7803 65.5186 66.5957 65.5186C66.2676 65.5186 66.0762 65.8604 66.0762 66.5576V66.585H65.1191V66.5098C65.1191 65.334 65.6113 64.6162 66.4863 64.6162C67.0127 64.6162 67.3682 64.876 67.7441 65.252L67.8193 65.3271C68.0723 65.5801 68.2158 65.6553 68.4004 65.6553C68.7285 65.6553 68.9199 65.3135 68.9199 64.6162V64.5889H69.877V64.6641C69.877 65.8398 69.3848 66.5576 68.5098 66.5576ZM66.7734 75.1299C65.3721 75.1299 64.3125 74.2822 64.3125 72.9424V72.9287C64.3125 71.6162 65.2832 70.8574 66.999 70.7549L69.1113 70.625V69.9551C69.1113 69.0459 68.5576 68.5537 67.457 68.5537C66.5752 68.5537 65.9941 68.8818 65.8027 69.4561L65.7959 69.4766H64.6064L64.6133 69.4355C64.8047 68.2803 65.9258 67.501 67.498 67.501C69.2959 67.501 70.3008 68.4238 70.3008 69.9551V75H69.1113V73.9131H69.002C68.5371 74.6992 67.7646 75.1299 66.7734 75.1299ZM65.5293 72.915C65.5293 73.6602 66.165 74.0977 67.0195 74.0977C68.2295 74.0977 69.1113 73.3047 69.1113 72.252V71.582L67.1426 71.7051C66.0215 71.7734 65.5293 72.1699 65.5293 72.9014V72.915ZM75.5029 75.1299C73.4043 75.1299 72.1055 73.6807 72.1055 71.3223V71.3086C72.1055 68.9434 73.4043 67.501 75.5029 67.501C77.6016 67.501 78.9004 68.9434 78.9004 71.3086V71.3223C78.9004 73.6807 77.6016 75.1299 75.5029 75.1299ZM75.5029 74.0771C76.8975 74.0771 77.6836 73.0586 77.6836 71.3223V71.3086C77.6836 69.5654 76.8975 68.5537 75.5029 68.5537C74.1084 68.5537 73.3223 69.5654 73.3223 71.3086V71.3223C73.3223 73.0586 74.1084 74.0771 75.5029 74.0771ZM87.6914 75.1299C85.5859 75.1299 84.3145 73.6533 84.3145 71.3428V71.3359C84.3145 69.0596 85.6133 67.501 87.6162 67.501C89.6191 67.501 90.8359 68.9912 90.8359 71.1924V71.6572H85.5312C85.5654 73.1816 86.4062 74.0703 87.7188 74.0703C88.7168 74.0703 89.332 73.5986 89.5303 73.1543L89.5576 73.0928H90.7471L90.7334 73.1475C90.4805 74.1455 89.4277 75.1299 87.6914 75.1299ZM87.6094 68.5605C86.5156 68.5605 85.6816 69.3057 85.5518 70.707H89.626C89.5029 69.251 88.6963 68.5605 87.6094 68.5605ZM92.6816 75V67.6309H93.8711V68.752H93.9805C94.3086 67.959 95.0059 67.501 95.9697 67.501C96.9678 67.501 97.665 68.0273 98.0068 68.793H98.1162C98.5127 68.0137 99.3535 67.501 100.372 67.501C101.876 67.501 102.717 68.3623 102.717 69.9072V75H101.527V70.1807C101.527 69.0938 101.028 68.5537 99.9893 68.5537C98.9639 68.5537 98.2871 69.3262 98.2871 70.2627V75H97.0977V69.9961C97.0977 69.1211 96.4961 68.5537 95.5664 68.5537C94.6025 68.5537 93.8711 69.3945 93.8711 70.4336V75H92.6816ZM111.419 75.0547C109.901 75.0547 109.266 74.4941 109.266 73.0859V68.6152H108.104V67.6309H109.266V65.7236H110.496V67.6309H112.109V68.6152H110.496V72.7852C110.496 73.6533 110.797 74.002 111.562 74.002C111.774 74.002 111.891 73.9951 112.109 73.9746V74.9863C111.877 75.0273 111.651 75.0547 111.419 75.0547ZM116.785 75.1299C114.68 75.1299 113.408 73.6533 113.408 71.3428V71.3359C113.408 69.0596 114.707 67.501 116.71 67.501C118.713 67.501 119.93 68.9912 119.93 71.1924V71.6572H114.625C114.659 73.1816 115.5 74.0703 116.812 74.0703C117.811 74.0703 118.426 73.5986 118.624 73.1543L118.651 73.0928H119.841L119.827 73.1475C119.574 74.1455 118.521 75.1299 116.785 75.1299ZM116.703 68.5605C115.609 68.5605 114.775 69.3057 114.646 70.707H118.72C118.597 69.251 117.79 68.5605 116.703 68.5605ZM121.775 75V67.6309H122.965V68.752H123.074C123.402 67.959 124.1 67.501 125.063 67.501C126.062 67.501 126.759 68.0273 127.101 68.793H127.21C127.606 68.0137 128.447 67.501 129.466 67.501C130.97 67.501 131.811 68.3623 131.811 69.9072V75H130.621V70.1807C130.621 69.0938 130.122 68.5537 129.083 68.5537C128.058 68.5537 127.381 69.3262 127.381 70.2627V75H126.191V69.9961C126.191 69.1211 125.59 68.5537 124.66 68.5537C123.696 68.5537 122.965 69.3945 122.965 70.4336V75H121.775ZM133.957 77.4609V67.6309H135.146V68.8066H135.256C135.707 67.9863 136.527 67.501 137.553 67.501C139.419 67.501 140.643 69.0117 140.643 71.3086V71.3223C140.643 73.6328 139.426 75.1299 137.553 75.1299C136.541 75.1299 135.659 74.624 135.256 73.8379H135.146V77.4609H133.957ZM137.279 74.0771C138.626 74.0771 139.426 73.0381 139.426 71.3223V71.3086C139.426 69.5928 138.626 68.5537 137.279 68.5537C135.939 68.5537 135.119 69.6064 135.119 71.3086V71.3223C135.119 73.0244 135.939 74.0771 137.279 74.0771ZM145.53 75.1299C143.432 75.1299 142.133 73.6807 142.133 71.3223V71.3086C142.133 68.9434 143.432 67.501 145.53 67.501C147.629 67.501 148.928 68.9434 148.928 71.3086V71.3223C148.928 73.6807 147.629 75.1299 145.53 75.1299ZM145.53 74.0771C146.925 74.0771 147.711 73.0586 147.711 71.3223V71.3086C147.711 69.5654 146.925 68.5537 145.53 68.5537C144.136 68.5537 143.35 69.5654 143.35 71.3086V71.3223C143.35 73.0586 144.136 74.0771 145.53 74.0771ZM155.34 66.209C154.889 66.209 154.52 65.8398 154.52 65.3887C154.52 64.9375 154.889 64.5684 155.34 64.5684C155.791 64.5684 156.16 64.9375 156.16 65.3887C156.16 65.8398 155.791 66.209 155.34 66.209ZM154.738 75V67.6309H155.928V75H154.738ZM158.17 75V67.6309H159.359V68.7383H159.469C159.838 67.959 160.528 67.501 161.615 67.501C163.27 67.501 164.192 68.4785 164.192 70.2285V75H163.003V70.5156C163.003 69.1895 162.456 68.5537 161.28 68.5537C160.104 68.5537 159.359 69.3467 159.359 70.6387V75H158.17ZM168.964 75.0547C167.446 75.0547 166.811 74.4941 166.811 73.0859V68.6152H165.648V67.6309H166.811V65.7236H168.041V67.6309H169.654V68.6152H168.041V72.7852C168.041 73.6533 168.342 74.002 169.107 74.002C169.319 74.002 169.436 73.9951 169.654 73.9746V74.9863C169.422 75.0273 169.196 75.0547 168.964 75.0547ZM174.33 75.1299C172.225 75.1299 170.953 73.6533 170.953 71.3428V71.3359C170.953 69.0596 172.252 67.501 174.255 67.501C176.258 67.501 177.475 68.9912 177.475 71.1924V71.6572H172.17C172.204 73.1816 173.045 74.0703 174.357 74.0703C175.355 74.0703 175.971 73.5986 176.169 73.1543L176.196 73.0928H177.386L177.372 73.1475C177.119 74.1455 176.066 75.1299 174.33 75.1299ZM174.248 68.5605C173.154 68.5605 172.32 69.3057 172.19 70.707H176.265C176.142 69.251 175.335 68.5605 174.248 68.5605ZM182.355 77.5977C180.578 77.5977 179.443 76.7979 179.259 75.5879L179.272 75.5811H180.503L180.51 75.5879C180.64 76.1484 181.296 76.5449 182.355 76.5449C183.675 76.5449 184.461 75.9229 184.461 74.8359V73.3457H184.352C183.887 74.1592 183.053 74.6172 182.041 74.6172C180.134 74.6172 178.951 73.1406 178.951 71.0762V71.0625C178.951 68.998 180.141 67.501 182.068 67.501C183.107 67.501 183.914 68.0137 184.365 68.8477H184.447V67.6309H185.637V74.8975C185.637 76.5449 184.365 77.5977 182.355 77.5977ZM182.301 73.5645C183.668 73.5645 184.488 72.5391 184.488 71.0762V71.0625C184.488 69.5996 183.661 68.5537 182.301 68.5537C180.934 68.5537 180.168 69.5996 180.168 71.0625V71.0762C180.168 72.5391 180.934 73.5645 182.301 73.5645ZM187.852 75V67.6309H189.041V68.7246H189.15C189.431 67.9521 190.121 67.501 191.119 67.501C191.345 67.501 191.598 67.5283 191.714 67.5488V68.7041C191.468 68.6631 191.242 68.6357 190.982 68.6357C189.848 68.6357 189.041 69.3535 189.041 70.4336V75H187.852ZM195.207 75.1299C193.806 75.1299 192.746 74.2822 192.746 72.9424V72.9287C192.746 71.6162 193.717 70.8574 195.433 70.7549L197.545 70.625V69.9551C197.545 69.0459 196.991 68.5537 195.891 68.5537C195.009 68.5537 194.428 68.8818 194.236 69.4561L194.229 69.4766H193.04L193.047 69.4355C193.238 68.2803 194.359 67.501 195.932 67.501C197.729 67.501 198.734 68.4238 198.734 69.9551V75H197.545V73.9131H197.436C196.971 74.6992 196.198 75.1299 195.207 75.1299ZM193.963 72.915C193.963 73.6602 194.599 74.0977 195.453 74.0977C196.663 74.0977 197.545 73.3047 197.545 72.252V71.582L195.576 71.7051C194.455 71.7734 193.963 72.1699 193.963 72.9014V72.915ZM200.977 75V64.7051H202.166V75H200.977ZM213.527 77.4609V73.8926H213.418C213.015 74.6719 212.167 75.1299 211.114 75.1299C209.241 75.1299 208.018 73.6191 208.018 71.3223V71.3086C208.018 68.998 209.234 67.501 211.114 67.501C212.105 67.501 212.974 68.0205 213.445 68.8613H213.527V67.6309H214.717V77.4609H213.527ZM211.395 74.0771C212.721 74.0771 213.562 73.0107 213.562 71.3223V71.3086C213.562 69.6133 212.721 68.5537 211.388 68.5537C210.041 68.5537 209.234 69.5928 209.234 71.3086V71.3223C209.234 73.0381 210.041 74.0771 211.395 74.0771ZM219.386 75.1299C217.711 75.1299 216.85 74.1455 216.85 72.4023V67.6309H218.039V72.1152C218.039 73.4414 218.518 74.0771 219.693 74.0771C220.992 74.0771 221.683 73.2842 221.683 71.9922V67.6309H222.872V75H221.683V73.8994H221.573C221.211 74.6855 220.466 75.1299 219.386 75.1299ZM228.102 75.1299C225.996 75.1299 224.725 73.6533 224.725 71.3428V71.3359C224.725 69.0596 226.023 67.501 228.026 67.501C230.029 67.501 231.246 68.9912 231.246 71.1924V71.6572H225.941C225.976 73.1816 226.816 74.0703 228.129 74.0703C229.127 74.0703 229.742 73.5986 229.94 73.1543L229.968 73.0928H231.157L231.144 73.1475C230.891 74.1455 229.838 75.1299 228.102 75.1299ZM228.02 68.5605C226.926 68.5605 226.092 69.3057 225.962 70.707H230.036C229.913 69.251 229.106 68.5605 228.02 68.5605ZM237.029 75V67.6309H238.219V68.752H238.328C238.656 67.959 239.354 67.501 240.317 67.501C241.315 67.501 242.013 68.0273 242.354 68.793H242.464C242.86 68.0137 243.701 67.501 244.72 67.501C246.224 67.501 247.064 68.3623 247.064 69.9072V75H245.875V70.1807C245.875 69.0938 245.376 68.5537 244.337 68.5537C243.312 68.5537 242.635 69.3262 242.635 70.2627V75H241.445V69.9961C241.445 69.1211 240.844 68.5537 239.914 68.5537C238.95 68.5537 238.219 69.3945 238.219 70.4336V75H237.029ZM251.679 75.1299C250.004 75.1299 249.143 74.1455 249.143 72.4023V67.6309H250.332V72.1152C250.332 73.4414 250.811 74.0771 251.986 74.0771C253.285 74.0771 253.976 73.2842 253.976 71.9922V67.6309H255.165V75H253.976V73.8994H253.866C253.504 74.6855 252.759 75.1299 251.679 75.1299ZM258.016 66.209C257.564 66.209 257.195 65.8398 257.195 65.3887C257.195 64.9375 257.564 64.5684 258.016 64.5684C258.467 64.5684 258.836 64.9375 258.836 65.3887C258.836 65.8398 258.467 66.209 258.016 66.209ZM257.414 75V67.6309H258.604V75H257.414ZM263.464 75.0547C261.946 75.0547 261.311 74.4941 261.311 73.0859V68.6152H260.148V67.6309H261.311V65.7236H262.541V67.6309H264.154V68.6152H262.541V72.7852C262.541 73.6533 262.842 74.002 263.607 74.002C263.819 74.002 263.936 73.9951 264.154 73.9746V74.9863C263.922 75.0273 263.696 75.0547 263.464 75.0547ZM267.955 75.1299C266.554 75.1299 265.494 74.2822 265.494 72.9424V72.9287C265.494 71.6162 266.465 70.8574 268.181 70.7549L270.293 70.625V69.9551C270.293 69.0459 269.739 68.5537 268.639 68.5537C267.757 68.5537 267.176 68.8818 266.984 69.4561L266.978 69.4766H265.788L265.795 69.4355C265.986 68.2803 267.107 67.501 268.68 67.501C270.478 67.501 271.482 68.4238 271.482 69.9551V75H270.293V73.9131H270.184C269.719 74.6992 268.946 75.1299 267.955 75.1299ZM266.711 72.915C266.711 73.6602 267.347 74.0977 268.201 74.0977C269.411 74.0977 270.293 73.3047 270.293 72.252V71.582L268.324 71.7051C267.203 71.7734 266.711 72.1699 266.711 72.9014V72.915ZM276.186 75.1299C274.545 75.1299 273.417 74.3369 273.28 73.1201H274.497C274.695 73.7354 275.283 74.1387 276.227 74.1387C277.218 74.1387 277.922 73.667 277.922 72.9971V72.9834C277.922 72.4844 277.546 72.1357 276.637 71.917L275.495 71.6436C274.114 71.3154 273.492 70.7139 273.492 69.6543V69.6475C273.492 68.4238 274.668 67.501 276.233 67.501C277.778 67.501 278.852 68.2734 279.016 69.4766H277.847C277.689 68.8955 277.115 68.4922 276.227 68.4922C275.352 68.4922 274.709 68.9434 274.709 69.5928V69.6064C274.709 70.1055 275.078 70.4199 275.946 70.6318L277.081 70.9053C278.469 71.2402 279.139 71.8418 279.139 72.8945V72.9082C279.139 74.2207 277.86 75.1299 276.186 75.1299ZM287.007 75L284.279 67.6309H285.537L287.554 73.7012H287.663L289.68 67.6309H290.938L288.21 75H287.007ZM295.244 75.1299C293.139 75.1299 291.867 73.6533 291.867 71.3428V71.3359C291.867 69.0596 293.166 67.501 295.169 67.501C297.172 67.501 298.389 68.9912 298.389 71.1924V71.6572H293.084C293.118 73.1816 293.959 74.0703 295.271 74.0703C296.27 74.0703 296.885 73.5986 297.083 73.1543L297.11 73.0928H298.3L298.286 73.1475C298.033 74.1455 296.98 75.1299 295.244 75.1299ZM295.162 68.5605C294.068 68.5605 293.234 69.3057 293.104 70.707H297.179C297.056 69.251 296.249 68.5605 295.162 68.5605ZM300.063 75V74.1387L304.315 68.7246V68.6152H300.07V67.6309H305.717V68.5127L301.485 73.9062V74.0156H305.737V75H300.063ZM310.584 75.1299C308.479 75.1299 307.207 73.6533 307.207 71.3428V71.3359C307.207 69.0596 308.506 67.501 310.509 67.501C312.512 67.501 313.729 68.9912 313.729 71.1924V71.6572H308.424C308.458 73.1816 309.299 74.0703 310.611 74.0703C311.609 74.0703 312.225 73.5986 312.423 73.1543L312.45 73.0928H313.64L313.626 73.1475C313.373 74.1455 312.32 75.1299 310.584 75.1299ZM310.502 68.5605C309.408 68.5605 308.574 69.3057 308.444 70.707H312.519C312.396 69.251 311.589 68.5605 310.502 68.5605ZM318.104 75.1299C316.463 75.1299 315.335 74.3369 315.198 73.1201H316.415C316.613 73.7354 317.201 74.1387 318.145 74.1387C319.136 74.1387 319.84 73.667 319.84 72.9971V72.9834C319.84 72.4844 319.464 72.1357 318.555 71.917L317.413 71.6436C316.032 71.3154 315.41 70.7139 315.41 69.6543V69.6475C315.41 68.4238 316.586 67.501 318.151 67.501C319.696 67.501 320.77 68.2734 320.934 69.4766H319.765C319.607 68.8955 319.033 68.4922 318.145 68.4922C317.27 68.4922 316.627 68.9434 316.627 69.5928V69.6064C316.627 70.1055 316.996 70.4199 317.864 70.6318L318.999 70.9053C320.387 71.2402 321.057 71.8418 321.057 72.8945V72.9082C321.057 74.2207 319.778 75.1299 318.104 75.1299ZM330.244 66.6055H329.205L330.415 64.2812H331.823L330.244 66.6055ZM329.848 75.1299C327.742 75.1299 326.471 73.6533 326.471 71.3428V71.3359C326.471 69.0596 327.77 67.501 329.772 67.501C331.775 67.501 332.992 68.9912 332.992 71.1924V71.6572H327.688C327.722 73.1816 328.562 74.0703 329.875 74.0703C330.873 74.0703 331.488 73.5986 331.687 73.1543L331.714 73.0928H332.903L332.89 73.1475C332.637 74.1455 331.584 75.1299 329.848 75.1299ZM329.766 68.5605C328.672 68.5605 327.838 69.3057 327.708 70.707H331.782C331.659 69.251 330.853 68.5605 329.766 68.5605ZM145.277 92.0547C143.76 92.0547 143.124 91.4941 143.124 90.0859V85.6152H141.962V84.6309H143.124V82.7236H144.354V84.6309H145.968V85.6152H144.354V89.7852C144.354 90.6533 144.655 91.002 145.421 91.002C145.633 91.002 145.749 90.9951 145.968 90.9746V91.9863C145.735 92.0273 145.51 92.0547 145.277 92.0547ZM150.644 92.1299C148.538 92.1299 147.267 90.6533 147.267 88.3428V88.3359C147.267 86.0596 148.565 84.501 150.568 84.501C152.571 84.501 153.788 85.9912 153.788 88.1924V88.6572H148.483C148.518 90.1816 149.358 91.0703 150.671 91.0703C151.669 91.0703 152.284 90.5986 152.482 90.1543L152.51 90.0928H153.699L153.686 90.1475C153.433 91.1455 152.38 92.1299 150.644 92.1299ZM150.562 85.5605C149.468 85.5605 148.634 86.3057 148.504 87.707H152.578C152.455 86.251 151.648 85.5605 150.562 85.5605ZM160.2 83.209C159.749 83.209 159.38 82.8398 159.38 82.3887C159.38 81.9375 159.749 81.5684 160.2 81.5684C160.651 81.5684 161.021 81.9375 161.021 82.3887C161.021 82.8398 160.651 83.209 160.2 83.209ZM159.599 92V84.6309H160.788V92H159.599ZM163.03 92V84.6309H164.22V85.752H164.329C164.657 84.959 165.354 84.501 166.318 84.501C167.316 84.501 168.014 85.0273 168.355 85.793H168.465C168.861 85.0137 169.702 84.501 170.721 84.501C172.225 84.501 173.065 85.3623 173.065 86.9072V92H171.876V87.1807C171.876 86.0938 171.377 85.5537 170.338 85.5537C169.312 85.5537 168.636 86.3262 168.636 87.2627V92H167.446V86.9961C167.446 86.1211 166.845 85.5537 165.915 85.5537C164.951 85.5537 164.22 86.3945 164.22 87.4336V92H163.03ZM175.212 94.4609V84.6309H176.401V85.8066H176.511C176.962 84.9863 177.782 84.501 178.808 84.501C180.674 84.501 181.897 86.0117 181.897 88.3086V88.3223C181.897 90.6328 180.681 92.1299 178.808 92.1299C177.796 92.1299 176.914 91.624 176.511 90.8379H176.401V94.4609H175.212ZM178.534 91.0771C179.881 91.0771 180.681 90.0381 180.681 88.3223V88.3086C180.681 86.5928 179.881 85.5537 178.534 85.5537C177.194 85.5537 176.374 86.6064 176.374 88.3086V88.3223C176.374 90.0244 177.194 91.0771 178.534 91.0771ZM186.785 92.1299C184.687 92.1299 183.388 90.6807 183.388 88.3223V88.3086C183.388 85.9434 184.687 84.501 186.785 84.501C188.884 84.501 190.183 85.9434 190.183 88.3086V88.3223C190.183 90.6807 188.884 92.1299 186.785 92.1299ZM186.785 91.0771C188.18 91.0771 188.966 90.0586 188.966 88.3223V88.3086C188.966 86.5654 188.18 85.5537 186.785 85.5537C185.391 85.5537 184.604 86.5654 184.604 88.3086V88.3223C184.604 90.0586 185.391 91.0771 186.785 91.0771ZM194.558 92.1299C192.917 92.1299 191.789 91.3369 191.652 90.1201H192.869C193.067 90.7354 193.655 91.1387 194.599 91.1387C195.59 91.1387 196.294 90.667 196.294 89.9971V89.9834C196.294 89.4844 195.918 89.1357 195.009 88.917L193.867 88.6436C192.486 88.3154 191.864 87.7139 191.864 86.6543V86.6475C191.864 85.4238 193.04 84.501 194.605 84.501C196.15 84.501 197.224 85.2734 197.388 86.4766H196.219C196.062 85.8955 195.487 85.4922 194.599 85.4922C193.724 85.4922 193.081 85.9434 193.081 86.5928V86.6064C193.081 87.1055 193.45 87.4199 194.318 87.6318L195.453 87.9053C196.841 88.2402 197.511 88.8418 197.511 89.8945V89.9082C197.511 91.2207 196.232 92.1299 194.558 92.1299ZM201.906 92.0547C200.389 92.0547 199.753 91.4941 199.753 90.0859V85.6152H198.591V84.6309H199.753V82.7236H200.983V84.6309H202.597V85.6152H200.983V89.7852C200.983 90.6533 201.284 91.002 202.05 91.002C202.262 91.002 202.378 90.9951 202.597 90.9746V91.9863C202.364 92.0273 202.139 92.0547 201.906 92.0547ZM207.293 92.1299C205.194 92.1299 203.896 90.6807 203.896 88.3223V88.3086C203.896 85.9434 205.194 84.501 207.293 84.501C209.392 84.501 210.69 85.9434 210.69 88.3086V88.3223C210.69 90.6807 209.392 92.1299 207.293 92.1299ZM207.293 91.0771C208.688 91.0771 209.474 90.0586 209.474 88.3223V88.3086C209.474 86.5654 208.688 85.5537 207.293 85.5537C205.898 85.5537 205.112 86.5654 205.112 88.3086V88.3223C205.112 90.0586 205.898 91.0771 207.293 91.0771ZM213.37 92.0684C212.885 92.0684 212.481 91.665 212.481 91.1797C212.481 90.6875 212.885 90.291 213.37 90.291C213.862 90.291 214.259 90.6875 214.259 91.1797C214.259 91.665 213.862 92.0684 213.37 92.0684Z" fill="black"/>
<path d="M133.217 30V20.1357H139.506V21.6191H134.98V24.5381H139.116V25.9736H134.98V30H133.217ZM141.283 30V22.5283H142.985V23.6768H143.102C143.354 22.877 144.038 22.4053 145.022 22.4053C145.282 22.4053 145.549 22.4395 145.713 22.4873V24.0117C145.439 23.957 145.159 23.916 144.865 23.916C143.73 23.916 142.985 24.5928 142.985 25.6592V30H141.283ZM149.049 30.123C147.627 30.123 146.595 29.248 146.595 27.8877V27.874C146.595 26.541 147.613 25.7617 149.432 25.6523L151.353 25.5361V24.8936C151.353 24.1484 150.867 23.7383 149.951 23.7383C149.172 23.7383 148.666 24.0186 148.495 24.5107L148.488 24.5381H146.882L146.889 24.4766C147.053 23.2188 148.256 22.3848 150.033 22.3848C151.954 22.3848 153.034 23.3145 153.034 24.8936V30H151.353V28.9746H151.236C150.826 29.6992 150.033 30.123 149.049 30.123ZM148.276 27.8057C148.276 28.4414 148.816 28.8174 149.568 28.8174C150.594 28.8174 151.353 28.1475 151.353 27.2588V26.6572L149.671 26.7666C148.721 26.8281 148.276 27.1768 148.276 27.792V27.8057ZM157.901 30.1504C156.001 30.1504 154.853 29.2754 154.709 28.0107V27.9971H156.397L156.404 28.0107C156.582 28.5303 157.081 28.8926 157.929 28.8926C158.776 28.8926 159.364 28.5098 159.364 27.9492V27.9355C159.364 27.498 159.036 27.2109 158.216 27.0264L157.006 26.7529C155.584 26.4385 154.907 25.7686 154.907 24.668V24.6611C154.907 23.3145 156.138 22.3848 157.901 22.3848C159.72 22.3848 160.807 23.2871 160.916 24.4971V24.5107H159.316L159.31 24.4902C159.187 24.0186 158.694 23.6357 157.895 23.6357C157.136 23.6357 156.589 24.0049 156.589 24.5654V24.5723C156.589 25.0098 156.903 25.2764 157.71 25.4609L158.92 25.7275C160.383 26.0557 161.073 26.6777 161.073 27.7646V27.7783C161.073 29.2002 159.74 30.1504 157.901 30.1504ZM165.988 30.1504C163.767 30.1504 162.42 28.6602 162.42 26.2812V26.2744C162.42 23.9229 163.78 22.3848 165.906 22.3848C168.032 22.3848 169.345 23.875 169.345 26.1309V26.6914H164.122C164.143 28.0312 164.867 28.8105 166.022 28.8105C166.945 28.8105 167.472 28.3457 167.636 28.0039L167.656 27.9561H169.276L169.256 28.0176C169.017 28.9814 168.019 30.1504 165.988 30.1504ZM165.927 23.7178C164.977 23.7178 164.266 24.3604 164.136 25.5498H167.684C167.567 24.3262 166.877 23.7178 165.927 23.7178ZM177.473 30.123C175.6 30.123 174.41 28.6396 174.41 26.2744V26.2607C174.41 23.8818 175.579 22.4053 177.473 22.4053C178.498 22.4053 179.353 22.9111 179.742 23.7178H179.858V19.6367H181.567V30H179.858V28.8311H179.742C179.332 29.6445 178.525 30.123 177.473 30.123ZM178.006 28.6875C179.168 28.6875 179.886 27.7715 179.886 26.2744V26.2607C179.886 24.7637 179.161 23.8408 178.006 23.8408C176.851 23.8408 176.14 24.7568 176.14 26.2607V26.2744C176.14 27.7783 176.844 28.6875 178.006 28.6875ZM186.934 30.1504C184.691 30.1504 183.338 28.6875 183.338 26.2676V26.2539C183.338 23.8545 184.712 22.3848 186.934 22.3848C189.162 22.3848 190.529 23.8477 190.529 26.2539V26.2676C190.529 28.6875 189.169 30.1504 186.934 30.1504ZM186.934 28.7695C188.116 28.7695 188.786 27.8467 188.786 26.2744V26.2607C188.786 24.6885 188.109 23.7588 186.934 23.7588C185.751 23.7588 185.074 24.6885 185.074 26.2607V26.2744C185.074 27.8467 185.751 28.7695 186.934 28.7695ZM198.664 30.123C196.791 30.123 195.602 28.6396 195.602 26.2744V26.2607C195.602 23.8818 196.771 22.4053 198.664 22.4053C199.689 22.4053 200.544 22.9111 200.934 23.7178H201.05V19.6367H202.759V30H201.05V28.8311H200.934C200.523 29.6445 199.717 30.123 198.664 30.123ZM199.197 28.6875C200.359 28.6875 201.077 27.7715 201.077 26.2744V26.2607C201.077 24.7637 200.353 23.8408 199.197 23.8408C198.042 23.8408 197.331 24.7568 197.331 26.2607V26.2744C197.331 27.7783 198.035 28.6875 199.197 28.6875ZM205.773 21.2773C205.213 21.2773 204.755 20.833 204.755 20.2725C204.755 19.7188 205.213 19.2676 205.773 19.2676C206.327 19.2676 206.785 19.7188 206.785 20.2725C206.785 20.833 206.327 21.2773 205.773 21.2773ZM204.919 30V22.5283H206.621V30H204.919ZM210.75 30.123C209.328 30.123 208.296 29.248 208.296 27.8877V27.874C208.296 26.541 209.314 25.7617 211.133 25.6523L213.054 25.5361V24.8936C213.054 24.1484 212.568 23.7383 211.652 23.7383C210.873 23.7383 210.367 24.0186 210.196 24.5107L210.189 24.5381H208.583L208.59 24.4766C208.754 23.2188 209.957 22.3848 211.734 22.3848C213.655 22.3848 214.735 23.3145 214.735 24.8936V30H213.054V28.9746H212.938C212.527 29.6992 211.734 30.123 210.75 30.123ZM209.978 27.8057C209.978 28.4414 210.518 28.8174 211.27 28.8174C212.295 28.8174 213.054 28.1475 213.054 27.2588V26.6572L211.372 26.7666C210.422 26.8281 209.978 27.1768 209.978 27.792V27.8057Z" fill="#8D8D8D"/>
<defs>
<filter id="filter0_d_192_270" x="-4" y="-2" width="366" height="119" filterUnits="userSpaceOnUse" color-interpolation-filters="sRGB">
<feFlood flood-opacity="0" result="BackgroundImageFix"/>
<feColorMatrix in="SourceAlpha" type="matrix" values="0 0 0 0 0 0 0 0 0 0 0 0 0 0 0 0 0 0 127 0" result="hardAlpha"/>
<feOffset dy="2"/>
<feGaussianBlur stdDeviation="2"/>
<feComposite in2="hardAlpha" operator="out"/>
<feColorMatrix type="matrix" values="0 0 0 0 0.827451 0 0 0 0 0.654902 0 0 0 0 0.360784 0 0 0 0.25 0"/>
<feBlend mode="normal" in2="BackgroundImageFix" result="effect1_dropShadow_192_270"/>
<feBlend mode="normal" in="SourceGraphic" in2="effect1_dropShadow_192_270" result="shape"/>
</filter>
<clipPath id="clip0_192_270">
<rect width="358" height="111" fill="white"/>
</clipPath>
</defs>
</svg>
